<svg width="675" height="457" viewBox="0 0 675 457" fill="none" xmlns="http://www.w3.org/2000/svg">
<path d="M0.907104 1.44336L674.907 1.44335M0.907104 12.8216L674.907 12.8216M0.907104 24.1999L674.907 24.1999M0.907104 35.5782L674.907 35.5781M0.907104 46.9564L674.907 46.9564M0.907104 58.3347L674.907 58.3347M0.907104 69.713L674.907 69.7129M0.907104 81.0912L674.907 81.0912M0.907104 92.4695L674.907 92.4695" stroke="url(#paint0_linear_1_651)" stroke-opacity="0.6"/>
<path d="M0.907104 92.4696L674.907 92.4696M0.907104 103.848L674.907 103.848M0.907104 115.226L674.907 115.226M0.907104 126.604L674.907 126.604M0.907104 137.983L674.907 137.983M0.907104 149.361L674.907 149.361M0.907104 160.739L674.907 160.739M0.907104 172.117L674.907 172.117M0.907104 183.496L674.907 183.496" stroke="url(#paint1_linear_1_651)" stroke-opacity="0.6"/>
<path d="M0.907104 182.642L674.907 182.642M0.907104 194.02L674.907 194.02M0.907104 205.399L674.907 205.399M0.907104 216.777L674.907 216.777M0.907104 228.155L674.907 228.155M0.907104 239.534L674.907 239.534M0.907104 250.912L674.907 250.912M0.907104 262.29L674.907 262.29M0.907104 273.668L674.907 273.668" stroke="url(#paint2_linear_1_651)" stroke-opacity="0.6"/>
<path d="M0.907104 273.669L674.907 273.669M0.907104 285.047L674.907 285.047M0.907104 296.425L674.907 296.425M0.907104 307.803L674.907 307.803M0.907104 319.182L674.907 319.182M0.907104 330.56L674.907 330.56M0.907104 341.938L674.907 341.938M0.907104 353.316L674.907 353.316M0.907104 364.695L674.907 364.695" stroke="url(#paint3_linear_1_651)" stroke-opacity="0.6"/>
<path d="M0.907104 364.974L674.907 364.974M0.907104 376.352L674.907 376.352M0.907104 387.73L674.907 387.73M0.907104 399.109L674.907 399.109M0.907104 410.487L674.907 410.487M0.907104 421.865L674.907 421.865M0.907104 433.243L674.907 433.243M0.907104 444.622L674.907 444.622M0.907104 456L674.907 456" stroke="url(#paint4_linear_1_651)" stroke-opacity="0.6"/>
<defs>
<linearGradient id="paint0_linear_1_651" x1="0.907157" y1="46.9553" x2="673.559" y2="78.7526" gradientUnits="userSpaceOnUse">
<stop stop-color="#A034D9" stop-opacity="0.34"/>
<stop offset="1" stop-color="white" stop-opacity="0"/>
</linearGradient>
<linearGradient id="paint1_linear_1_651" x1="0.907157" y1="137.982" x2="673.559" y2="169.779" gradientUnits="userSpaceOnUse">
<stop stop-color="#A034D9" stop-opacity="0.34"/>
<stop offset="1" stop-color="white" stop-opacity="0"/>
</linearGradient>
<linearGradient id="paint2_linear_1_651" x1="0.907157" y1="228.154" x2="673.559" y2="259.952" gradientUnits="userSpaceOnUse">
<stop stop-color="#A034D9" stop-opacity="0.34"/>
<stop offset="1" stop-color="white" stop-opacity="0"/>
</linearGradient>
<linearGradient id="paint3_linear_1_651" x1="0.907157" y1="319.18" x2="673.559" y2="350.978" gradientUnits="userSpaceOnUse">
<stop stop-color="#A034D9" stop-opacity="0.34"/>
<stop offset="1" stop-color="white" stop-opacity="0"/>
</linearGradient>
<linearGradient id="paint4_linear_1_651" x1="0.907157" y1="410.486" x2="673.559" y2="442.283" gradientUnits="userSpaceOnUse">
<stop stop-color="#A034D9" stop-opacity="0.34"/>
<stop offset="1" stop-color="white" stop-opacity="0"/>
</linearGradient>
</defs>
</svg>
