<svg width="520" height="565" viewBox="0 0 520 565" fill="none" xmlns="http://www.w3.org/2000/svg">
<path d="M0 1H519.5M0 21.815H519.5M0 42.6301H519.5M0 63.4451H519.5M0 84.2601H519.5M0 105.075H519.5M0 125.89H519.5M0 146.705H519.5M0 167.52H519.5" stroke="url(#paint0_linear_1_249)" stroke-opacity="0.6"/>
<path d="M0 167.521H519.5M0 188.336H519.5M0 209.151H519.5M0 229.966H519.5M0 250.781H519.5M0 271.596H519.5M0 292.411H519.5M0 313.226H519.5M0 334.041H519.5" stroke="url(#paint1_linear_1_249)" stroke-opacity="0.6"/>
<path d="M0 334.479H519.5M0 355.295H519.5M0 376.11H519.5M0 396.925H519.5M0 417.74H519.5M0 438.555H519.5M0 459.37H519.5M0 480.185H519.5M0 501H519.5" stroke="url(#paint2_linear_1_249)" stroke-opacity="0.6"/>
<path d="M0 397H519.5M0 417.815H519.5M0 438.63H519.5M0 459.445H519.5M0 480.26H519.5M0 501.075H519.5M0 521.89H519.5M0 542.705H519.5M0 563.52H519.5" stroke="url(#paint3_linear_1_249)" stroke-opacity="0.6"/>
<defs>
<linearGradient id="paint0_linear_1_249" x1="4.04885e-05" y1="84.2581" x2="519.413" y2="94.6033" gradientUnits="userSpaceOnUse">
<stop stop-color="#A034D9" stop-opacity="0.34"/>
<stop offset="1" stop-color="white" stop-opacity="0"/>
</linearGradient>
<linearGradient id="paint1_linear_1_249" x1="4.04885e-05" y1="250.779" x2="519.413" y2="261.124" gradientUnits="userSpaceOnUse">
<stop stop-color="#A034D9" stop-opacity="0.34"/>
<stop offset="1" stop-color="white" stop-opacity="0"/>
</linearGradient>
<linearGradient id="paint2_linear_1_249" x1="4.04885e-05" y1="417.738" x2="519.413" y2="428.083" gradientUnits="userSpaceOnUse">
<stop stop-color="#A034D9" stop-opacity="0.34"/>
<stop offset="1" stop-color="white" stop-opacity="0"/>
</linearGradient>
<linearGradient id="paint3_linear_1_249" x1="4.04885e-05" y1="480.258" x2="519.413" y2="490.603" gradientUnits="userSpaceOnUse">
<stop stop-color="#A034D9" stop-opacity="0.34"/>
<stop offset="1" stop-color="white" stop-opacity="0"/>
</linearGradient>
</defs>
</svg>
