<svg width="2265" height="291" viewBox="0 0 2265 291" fill="none" xmlns="http://www.w3.org/2000/svg">
<g opacity="0.68">
<rect x="35.2529" y="2.00024" width="2228" height="286.872" fill="#090812"/>
<rect x="35.2529" y="2.00024" width="2228" height="286.872" fill="white" fill-opacity="0.04"/>
<rect x="35.2529" y="2.00024" width="2228" height="286.872" stroke="url(#paint0_linear_5757_292)" stroke-width="2"/>
<path d="M577.504 1.11205L577.492 170.122L1.00911 201.784" stroke="white" stroke-opacity="0.2" stroke-width="0.25" stroke-linecap="round" stroke-linejoin="round"/>
<path d="M670.872 1.11846L670.861 170.128L1.00811 216.125" stroke="white" stroke-opacity="0.2" stroke-width="0.25" stroke-linecap="round" stroke-linejoin="round"/>
<path d="M764.24 1.12512L764.228 170.135L1.00548 240.019" stroke="white" stroke-opacity="0.2" stroke-width="0.25" stroke-linecap="round" stroke-linejoin="round"/>
<path d="M857.617 1.13132L857.605 170.141L1.44654 287.726" stroke="white" stroke-opacity="0.2" stroke-width="0.25" stroke-linecap="round" stroke-linejoin="round"/>
<path d="M950.983 1.13793L950.972 170.148L522.52 287.763" stroke="white" stroke-opacity="0.2" stroke-width="0.25" stroke-linecap="round" stroke-linejoin="round"/>
<path d="M1044.35 1.14442L1044.34 170.154L1043.6 287.798" stroke="white" stroke-opacity="0.2" stroke-width="0.25" stroke-linecap="round" stroke-linejoin="round"/>
<path d="M1137.73 1.15088L1137.72 170.161L1564.68 287.834" stroke="white" stroke-opacity="0.2" stroke-width="0.25" stroke-linecap="round" stroke-linejoin="round"/>
<path d="M1231.1 1.15723L1231.09 170.167L2085.75 287.87" stroke="white" stroke-opacity="0.2" stroke-width="0.25" stroke-linecap="round" stroke-linejoin="round"/>
<path d="M1324.48 1.16406L1324.46 170.174L2088 240.273" stroke="white" stroke-opacity="0.2" stroke-width="0.25" stroke-linecap="round" stroke-linejoin="round"/>
<path d="M1417.84 1.17017L1417.83 170.18L2088 216.33" stroke="white" stroke-opacity="0.2" stroke-width="0.25" stroke-linecap="round" stroke-linejoin="round"/>
<path d="M1511.21 1.17651L1511.2 170.186L2088 201.968" stroke="white" stroke-opacity="0.2" stroke-width="0.25" stroke-linecap="round" stroke-linejoin="round"/>
<path d="M1604.59 1.18311L1604.58 170.193L2088.01 192.394" stroke="white" stroke-opacity="0.2" stroke-width="0.25" stroke-linecap="round" stroke-linejoin="round"/>
<path d="M1697.96 1.18945L1697.95 170.199L2088.01 185.557" stroke="white" stroke-opacity="0.2" stroke-width="0.25" stroke-linecap="round" stroke-linejoin="round"/>
<path d="M1791.32 1.1958L1791.31 170.205L2088.01 180.429" stroke="white" stroke-opacity="0.2" stroke-width="0.25" stroke-linecap="round" stroke-linejoin="round"/>
<path d="M1884.7 1.20239L1884.69 170.212L2088.01 176.441" stroke="white" stroke-opacity="0.2" stroke-width="0.25" stroke-linecap="round" stroke-linejoin="round"/>
<path d="M1978.07 1.20874L1978.06 170.218L2088.01 173.251" stroke="white" stroke-opacity="0.2" stroke-width="0.25" stroke-linecap="round" stroke-linejoin="round"/>
<path d="M2071.44 1.21533L2071.42 170.225L2088.01 170.64" stroke="white" stroke-opacity="0.2" stroke-width="0.25" stroke-linecap="round" stroke-linejoin="round"/>
<path d="M1.00927 185.392L390.747 170.109L390.759 1.09916" stroke="white" stroke-opacity="0.2" stroke-width="0.25" stroke-linecap="round" stroke-linejoin="round"/>
<path d="M484.128 1.10581L484.116 170.115L1.00878 192.223" stroke="white" stroke-opacity="0.2" stroke-width="0.25" stroke-linecap="round" stroke-linejoin="round"/>
<path d="M297.391 1.09299L297.38 170.103L1.00769 180.27" stroke="white" stroke-opacity="0.2" stroke-width="0.25" stroke-linecap="round" stroke-linejoin="round"/>
<path d="M204.013 1.08646L204.001 170.096L1.01082 176.284" stroke="white" stroke-opacity="0.2" stroke-width="0.25" stroke-linecap="round" stroke-linejoin="round"/>
<path d="M110.646 1.08009L110.635 170.09L1.01013 173.096" stroke="white" stroke-opacity="0.2" stroke-width="0.25" stroke-linecap="round" stroke-linejoin="round"/>
<path d="M17.268 1.07363L17.2563 170.083L1.01025 170.488" stroke="white" stroke-opacity="0.2" stroke-width="0.25" stroke-linecap="round" stroke-linejoin="round"/>
<path d="M1.01122 157.258L2088.01 157.402" stroke="white" stroke-opacity="0.2" stroke-width="0.25" stroke-linecap="round" stroke-linejoin="round"/>
<path d="M1.01219 144.433L2088.01 144.576" stroke="white" stroke-opacity="0.2" stroke-width="0.25" stroke-linecap="round" stroke-linejoin="round"/>
<path d="M1.01268 131.608L2088.01 131.752" stroke="white" stroke-opacity="0.2" stroke-width="0.25" stroke-linecap="round" stroke-linejoin="round"/>
<path d="M1.01366 118.784L2088.01 118.928" stroke="white" stroke-opacity="0.2" stroke-width="0.25" stroke-linecap="round" stroke-linejoin="round"/>
<path d="M1.01463 105.958L2088.01 106.102" stroke="white" stroke-opacity="0.2" stroke-width="0.25" stroke-linecap="round" stroke-linejoin="round"/>
<path d="M1.01561 93.1339L2088.01 93.2779" stroke="white" stroke-opacity="0.2" stroke-width="0.25" stroke-linecap="round" stroke-linejoin="round"/>
<path d="M1.01659 80.3097L2088.01 80.4536" stroke="white" stroke-opacity="0.2" stroke-width="0.25" stroke-linecap="round" stroke-linejoin="round"/>
<path d="M1.01707 67.484L2088.01 67.6279" stroke="white" stroke-opacity="0.2" stroke-width="0.25" stroke-linecap="round" stroke-linejoin="round"/>
<path d="M1.01854 54.6596L2088.02 54.8035" stroke="white" stroke-opacity="0.2" stroke-width="0.25" stroke-linecap="round" stroke-linejoin="round"/>
<path d="M1.01903 41.8353L2088.02 41.9793" stroke="white" stroke-opacity="0.2" stroke-width="0.25" stroke-linecap="round" stroke-linejoin="round"/>
<path d="M1.02 29.0097L2088.02 29.1535" stroke="white" stroke-opacity="0.2" stroke-width="0.25" stroke-linecap="round" stroke-linejoin="round"/>
<path d="M1.02098 16.1849L2088.02 16.3289" stroke="white" stroke-opacity="0.2" stroke-width="0.25" stroke-linecap="round" stroke-linejoin="round"/>
<path d="M1.02147 3.35975L2088.02 3.50373" stroke="white" stroke-opacity="0.2" stroke-width="0.25" stroke-linecap="round" stroke-linejoin="round"/>
<path d="M2088 226.649L1.00633 226.506" stroke="white" stroke-opacity="0.2" stroke-width="0.25" stroke-linecap="round" stroke-linejoin="round"/>
<path d="M2088 216.736L1.00731 216.592" stroke="white" stroke-opacity="0.2" stroke-width="0.25" stroke-linecap="round" stroke-linejoin="round"/>
<path d="M2088 208.961L1.0078 208.817" stroke="white" stroke-opacity="0.2" stroke-width="0.25" stroke-linecap="round" stroke-linejoin="round"/>
<path d="M2088 239.717L1.00536 239.573" stroke="white" stroke-opacity="0.2" stroke-width="0.25" stroke-linecap="round" stroke-linejoin="round"/>
<path d="M2088.01 202.696L1.00829 202.552" stroke="white" stroke-opacity="0.2" stroke-width="0.25" stroke-linecap="round" stroke-linejoin="round"/>
<path d="M2088.01 197.542L1.00829 197.398" stroke="white" stroke-opacity="0.2" stroke-width="0.25" stroke-linecap="round" stroke-linejoin="round"/>
<path d="M2088.01 171.379L1.01024 171.235" stroke="white" stroke-opacity="0.2" stroke-width="0.25" stroke-linecap="round" stroke-linejoin="round"/>
<path d="M2088.01 170.226L1.01024 170.082" stroke="white" stroke-opacity="0.2" stroke-width="0.25" stroke-linecap="round" stroke-linejoin="round"/>
<path d="M2088.01 174.025L1.01024 173.881" stroke="white" stroke-opacity="0.2" stroke-width="0.25" stroke-linecap="round" stroke-linejoin="round"/>
<path d="M2088.01 172.64L1.01024 172.496" stroke="white" stroke-opacity="0.2" stroke-width="0.25" stroke-linecap="round" stroke-linejoin="round"/>
<path d="M2088.01 186.409L1.00926 186.265" stroke="white" stroke-opacity="0.2" stroke-width="0.25" stroke-linecap="round" stroke-linejoin="round"/>
<path d="M2088.01 193.226L1.00877 193.082" stroke="white" stroke-opacity="0.2" stroke-width="0.25" stroke-linecap="round" stroke-linejoin="round"/>
<path d="M2088 257.733L1.00438 257.589" stroke="white" stroke-opacity="0.2" stroke-width="0.25" stroke-linecap="round" stroke-linejoin="round"/>
<path d="M2088.01 177.25L1.00975 177.106" stroke="white" stroke-opacity="0.2" stroke-width="0.25" stroke-linecap="round" stroke-linejoin="round"/>
<path d="M2088.01 175.554L1.00975 175.41" stroke="white" stroke-opacity="0.2" stroke-width="0.25" stroke-linecap="round" stroke-linejoin="round"/>
<path d="M2088.01 183.671L1.00926 183.527" stroke="white" stroke-opacity="0.2" stroke-width="0.25" stroke-linecap="round" stroke-linejoin="round"/>
<path d="M2088.01 181.267L1.00926 181.123" stroke="white" stroke-opacity="0.2" stroke-width="0.25" stroke-linecap="round" stroke-linejoin="round"/>
<path d="M2088.01 179.142L1.00975 178.998" stroke="white" stroke-opacity="0.2" stroke-width="0.25" stroke-linecap="round" stroke-linejoin="round"/>
<path d="M2088.01 189.561L1.00877 189.417" stroke="white" stroke-opacity="0.2" stroke-width="0.25" stroke-linecap="round" stroke-linejoin="round"/>
<path d="M2085.75 287.871L1.44627 287.727" stroke="white" stroke-opacity="0.2" stroke-width="0.25" stroke-linecap="round" stroke-linejoin="round"/>
</g>
<defs>
<linearGradient id="paint0_linear_5757_292" x1="129.9" y1="1.00006" x2="2271.79" y2="353.229" gradientUnits="userSpaceOnUse">
<stop stop-color="white" stop-opacity="0"/>
<stop offset="0.414678" stop-color="white" stop-opacity="0.55"/>
</linearGradient>
</defs>
</svg>
