<svg width="646" height="674" viewBox="0 0 646 674" fill="none" xmlns="http://www.w3.org/2000/svg">
<path d="M323 0L323 674M309.541 -5.88299e-07L309.541 674M296.083 -1.1766e-06L296.083 674M282.624 -1.7649e-06L282.624 674M269.165 -2.3532e-06L269.165 674M255.706 -2.9415e-06L255.706 674M242.248 -3.5298e-06L242.248 674M228.789 -4.11809e-06L228.789 674M215.33 -4.70639e-06L215.33 674" stroke="url(#paint0_linear_5763_230)" stroke-opacity="0.6"/>
<path d="M215.33 0L215.33 674M201.871 -5.88299e-07L201.871 674M188.413 -1.1766e-06L188.413 674M174.954 -1.7649e-06L174.954 674M161.495 -2.3532e-06L161.495 674M148.036 -2.9415e-06L148.036 674M134.578 -3.5298e-06L134.578 674M121.119 -4.11809e-06L121.119 674M107.66 -4.70639e-06L107.66 674" stroke="url(#paint1_linear_5763_230)" stroke-opacity="0.6"/>
<path d="M108.67 0L108.67 674M95.211 -5.88299e-07L95.211 674M81.7523 -1.1766e-06L81.7523 674M68.2936 -1.7649e-06L68.2936 674M54.8349 -2.3532e-06L54.8348 674M41.3761 -2.9415e-06L41.3761 674M27.9174 -3.5298e-06L27.9174 674M14.4587 -4.11809e-06L14.4587 674M0.999994 -4.70639e-06L0.999965 674" stroke="url(#paint2_linear_5763_230)" stroke-opacity="0.6"/>
<path d="M645 0L645 674M631.541 -5.88299e-07L631.541 674M618.083 -1.1766e-06L618.083 674M604.624 -1.7649e-06L604.624 674M591.165 -2.3532e-06L591.165 674M577.706 -2.9415e-06L577.706 674M564.248 -3.5298e-06L564.248 674M550.789 -4.11809e-06L550.789 674M537.33 -4.70639e-06L537.33 674" stroke="url(#paint3_linear_5763_230)" stroke-opacity="0.6"/>
<path d="M537.33 0L537.33 674M523.871 -5.88299e-07L523.871 674M510.413 -1.1766e-06L510.413 674M496.954 -1.7649e-06L496.954 674M483.495 -2.3532e-06L483.495 674M470.036 -2.9415e-06L470.036 674M456.578 -3.5298e-06L456.578 674M443.119 -4.11809e-06L443.119 674M429.66 -4.70639e-06L429.66 674" stroke="url(#paint4_linear_5763_230)" stroke-opacity="0.6"/>
<path d="M430.67 0L430.67 674M417.211 -5.88299e-07L417.211 674M403.752 -1.1766e-06L403.752 674M390.294 -1.7649e-06L390.294 674M376.835 -2.3532e-06L376.835 674M363.376 -2.9415e-06L363.376 674M349.917 -3.5298e-06L349.917 674M336.459 -4.11809e-06L336.459 674M323 -4.70639e-06L323 674" stroke="url(#paint5_linear_5763_230)" stroke-opacity="0.6"/>
<defs>
<linearGradient id="paint0_linear_5763_230" x1="269.166" y1="5.01767e-05" x2="242.267" y2="673.08" gradientUnits="userSpaceOnUse">
<stop stop-color="#A034D9" stop-opacity="0.34"/>
<stop offset="1" stop-color="white" stop-opacity="0"/>
</linearGradient>
<linearGradient id="paint1_linear_5763_230" x1="161.497" y1="5.01767e-05" x2="134.597" y2="673.08" gradientUnits="userSpaceOnUse">
<stop stop-color="#A034D9" stop-opacity="0.34"/>
<stop offset="1" stop-color="white" stop-opacity="0"/>
</linearGradient>
<linearGradient id="paint2_linear_5763_230" x1="54.8362" y1="5.01767e-05" x2="27.937" y2="673.08" gradientUnits="userSpaceOnUse">
<stop stop-color="#A034D9" stop-opacity="0.34"/>
<stop offset="1" stop-color="white" stop-opacity="0"/>
</linearGradient>
<linearGradient id="paint3_linear_5763_230" x1="591.166" y1="5.01767e-05" x2="564.267" y2="673.08" gradientUnits="userSpaceOnUse">
<stop stop-color="#A034D9" stop-opacity="0.34"/>
<stop offset="1" stop-color="white" stop-opacity="0"/>
</linearGradient>
<linearGradient id="paint4_linear_5763_230" x1="483.497" y1="5.01767e-05" x2="456.597" y2="673.08" gradientUnits="userSpaceOnUse">
<stop stop-color="#A034D9" stop-opacity="0.34"/>
<stop offset="1" stop-color="white" stop-opacity="0"/>
</linearGradient>
<linearGradient id="paint5_linear_5763_230" x1="376.836" y1="5.01767e-05" x2="349.937" y2="673.08" gradientUnits="userSpaceOnUse">
<stop stop-color="#A034D9" stop-opacity="0.34"/>
<stop offset="1" stop-color="white" stop-opacity="0"/>
</linearGradient>
</defs>
</svg>
