<svg width="280" height="387" viewBox="0 0 280 387" fill="none" xmlns="http://www.w3.org/2000/svg">
<g filter="url(#filter0_d_5908_246)">
<mask id="path-1-inside-1_5908_246" fill="white">
<path fill-rule="evenodd" clip-rule="evenodd" d="M181.337 136.476C184.136 137.295 186.344 139.694 187.097 142.735C188.497 148.292 188.443 159.874 188.443 159.874C188.443 159.874 188.443 171.398 187.097 176.955C186.344 179.997 184.136 182.395 181.337 183.214C176.223 184.676 155.767 184.676 155.767 184.676C155.767 184.676 135.364 184.676 130.196 183.156C127.397 182.337 125.19 179.938 124.436 176.897C123.09 171.398 123.09 159.816 123.09 159.816C123.09 159.816 123.09 148.292 124.436 142.735C125.19 139.694 127.451 137.237 130.196 136.418C135.31 134.956 155.767 134.956 155.767 134.956C155.767 134.956 176.223 134.956 181.337 136.476ZM166.264 159.41L149.253 170.056V148.763L166.264 159.41Z"/>
</mask>
<path fill-rule="evenodd" clip-rule="evenodd" d="M181.337 136.476C184.136 137.295 186.344 139.694 187.097 142.735C188.497 148.292 188.443 159.874 188.443 159.874C188.443 159.874 188.443 171.398 187.097 176.955C186.344 179.997 184.136 182.395 181.337 183.214C176.223 184.676 155.767 184.676 155.767 184.676C155.767 184.676 135.364 184.676 130.196 183.156C127.397 182.337 125.19 179.938 124.436 176.897C123.09 171.398 123.09 159.816 123.09 159.816C123.09 159.816 123.09 148.292 124.436 142.735C125.19 139.694 127.451 137.237 130.196 136.418C135.31 134.956 155.767 134.956 155.767 134.956C155.767 134.956 176.223 134.956 181.337 136.476ZM166.264 159.41L149.253 170.056V148.763L166.264 159.41Z" fill="white" fill-opacity="0.5" shape-rendering="crispEdges"/>
<path d="M187.097 142.735L186.127 142.976L186.127 142.98L187.097 142.735ZM181.337 136.476L181.052 137.435L181.056 137.436L181.337 136.476ZM188.443 159.874L187.443 159.87V159.874H188.443ZM187.097 176.955L188.068 177.196L188.069 177.19L187.097 176.955ZM181.337 183.214L181.612 184.175L181.618 184.174L181.337 183.214ZM130.196 183.156L130.479 182.196L130.477 182.196L130.196 183.156ZM124.436 176.897L123.465 177.134L123.466 177.137L124.436 176.897ZM124.436 142.735L123.466 142.495L123.464 142.5L124.436 142.735ZM130.196 136.418L129.921 135.456L129.91 135.46L130.196 136.418ZM149.253 170.056H148.253V171.861L149.783 170.903L149.253 170.056ZM166.264 159.41L166.794 160.257L168.149 159.41L166.794 158.562L166.264 159.41ZM149.253 148.763L149.783 147.916L148.253 146.958V148.763H149.253ZM188.068 142.495C187.236 139.139 184.789 136.444 181.618 135.517L181.056 137.436C183.484 138.146 185.451 140.248 186.127 142.976L188.068 142.495ZM188.443 159.874C189.443 159.879 189.443 159.879 189.443 159.879C189.443 159.879 189.443 159.879 189.443 159.878C189.443 159.878 189.443 159.877 189.443 159.877C189.443 159.875 189.443 159.873 189.443 159.87C189.443 159.864 189.443 159.855 189.443 159.844C189.443 159.821 189.443 159.787 189.443 159.744C189.443 159.656 189.443 159.527 189.443 159.362C189.441 159.031 189.438 158.554 189.429 157.964C189.412 156.784 189.375 155.152 189.294 153.344C189.133 149.757 188.794 145.379 188.067 142.491L186.127 142.98C186.8 145.649 187.134 149.84 187.296 153.434C187.376 155.216 187.413 156.827 187.43 157.992C187.438 158.575 187.441 159.045 187.443 159.37C187.443 159.532 187.443 159.658 187.443 159.742C187.443 159.785 187.443 159.817 187.443 159.838C187.443 159.849 187.443 159.857 187.443 159.862C187.443 159.865 187.443 159.867 187.443 159.868C187.443 159.869 187.443 159.869 187.443 159.87C187.443 159.87 187.443 159.87 187.443 159.87C187.443 159.87 187.443 159.87 188.443 159.874ZM188.069 177.19C188.767 174.308 189.106 169.95 189.274 166.378C189.358 164.578 189.401 162.954 189.422 161.78C189.432 161.193 189.438 160.717 189.44 160.389C189.442 160.224 189.442 160.096 189.443 160.009C189.443 159.966 189.443 159.932 189.443 159.91C189.443 159.898 189.443 159.89 189.443 159.884C189.443 159.881 189.443 159.879 189.443 159.877C189.443 159.876 189.443 159.876 189.443 159.875C189.443 159.875 189.443 159.875 189.443 159.875C189.443 159.875 189.443 159.874 188.443 159.874C187.443 159.874 187.443 159.874 187.443 159.874C187.443 159.875 187.443 159.875 187.443 159.875C187.443 159.875 187.443 159.875 187.443 159.876C187.443 159.877 187.443 159.879 187.443 159.882C187.443 159.887 187.443 159.895 187.443 159.906C187.443 159.927 187.443 159.959 187.443 160.001C187.442 160.086 187.442 160.211 187.44 160.372C187.438 160.695 187.433 161.164 187.422 161.744C187.401 162.904 187.359 164.508 187.276 166.284C187.107 169.862 186.773 174.045 186.125 176.72L188.069 177.19ZM181.618 184.174C184.789 183.246 187.236 180.551 188.068 177.196L186.127 176.715C185.451 179.442 183.484 181.544 181.056 182.254L181.618 184.174ZM155.767 184.676C155.767 185.676 155.767 185.676 155.767 185.676C155.767 185.676 155.767 185.676 155.768 185.676C155.768 185.676 155.769 185.676 155.771 185.676C155.773 185.676 155.777 185.676 155.782 185.676C155.792 185.676 155.807 185.676 155.827 185.676C155.866 185.676 155.924 185.676 156 185.676C156.152 185.676 156.375 185.675 156.661 185.674C157.232 185.671 158.053 185.665 159.054 185.653C161.056 185.631 163.78 185.585 166.666 185.493C169.55 185.401 172.603 185.264 175.262 185.056C177.891 184.851 180.224 184.572 181.612 184.175L181.062 182.253C179.893 182.587 177.751 182.856 175.106 183.062C172.491 183.266 169.472 183.403 166.602 183.494C163.734 183.585 161.025 183.631 159.031 183.654C158.035 183.665 157.218 183.671 156.651 183.674C156.367 183.675 156.146 183.676 155.995 183.676C155.92 183.676 155.863 183.676 155.824 183.676C155.805 183.676 155.791 183.676 155.781 183.676C155.776 183.676 155.773 183.676 155.77 183.676C155.769 183.676 155.768 183.676 155.767 183.676C155.767 183.676 155.767 183.676 155.767 183.676C155.767 183.676 155.767 183.676 155.767 184.676ZM129.914 184.115C131.318 184.528 133.659 184.818 136.291 185.032C138.953 185.247 142.006 185.39 144.886 185.486C147.769 185.581 150.488 185.629 152.486 185.653C153.485 185.664 154.305 185.67 154.875 185.673C155.16 185.675 155.382 185.676 155.534 185.676C155.61 185.676 155.668 185.676 155.707 185.676C155.726 185.676 155.741 185.676 155.751 185.676C155.756 185.676 155.76 185.676 155.763 185.676C155.764 185.676 155.765 185.676 155.766 185.676C155.766 185.676 155.766 185.676 155.766 185.676C155.767 185.676 155.767 185.676 155.767 184.676C155.767 183.676 155.767 183.676 155.767 183.676C155.766 183.676 155.766 183.676 155.766 183.676C155.765 183.676 155.764 183.676 155.763 183.676C155.761 183.676 155.757 183.676 155.752 183.676C155.743 183.676 155.728 183.676 155.709 183.676C155.671 183.676 155.614 183.676 155.539 183.676C155.389 183.676 155.168 183.675 154.885 183.673C154.319 183.67 153.504 183.665 152.51 183.653C150.521 183.629 147.817 183.582 144.953 183.487C142.087 183.392 139.07 183.25 136.453 183.038C133.806 182.824 131.659 182.544 130.479 182.196L129.914 184.115ZM123.466 177.137C124.297 180.493 126.745 183.188 129.915 184.115L130.477 182.196C128.049 181.485 126.083 179.384 125.407 176.656L123.466 177.137ZM123.09 159.816C122.09 159.816 122.09 159.816 122.09 159.816C122.09 159.816 122.09 159.817 122.09 159.817C122.09 159.817 122.09 159.818 122.09 159.819C122.09 159.82 122.09 159.822 122.09 159.825C122.09 159.831 122.09 159.84 122.09 159.851C122.09 159.874 122.091 159.907 122.091 159.951C122.091 160.039 122.092 160.167 122.093 160.332C122.096 160.663 122.101 161.14 122.112 161.73C122.133 162.908 122.175 164.538 122.26 166.341C122.428 169.92 122.766 174.28 123.465 177.134L125.408 176.659C124.76 174.015 124.426 169.834 124.258 166.247C124.174 164.468 124.132 162.858 124.111 161.694C124.101 161.111 124.096 160.641 124.093 160.316C124.092 160.154 124.091 160.028 124.091 159.944C124.091 159.901 124.09 159.869 124.09 159.848C124.09 159.837 124.09 159.829 124.09 159.823C124.09 159.821 124.09 159.819 124.09 159.818C124.09 159.817 124.09 159.817 124.09 159.816C124.09 159.816 124.09 159.816 124.09 159.816C124.09 159.816 124.09 159.816 123.09 159.816ZM123.464 142.5C122.766 145.382 122.428 149.74 122.26 153.313C122.175 155.112 122.133 156.736 122.112 157.911C122.101 158.498 122.096 158.973 122.093 159.302C122.092 159.466 122.091 159.594 122.091 159.681C122.091 159.725 122.09 159.758 122.09 159.781C122.09 159.792 122.09 159.801 122.09 159.807C122.09 159.81 122.09 159.812 122.09 159.813C122.09 159.814 122.09 159.815 122.09 159.815C122.09 159.815 122.09 159.816 122.09 159.816C122.09 159.816 122.09 159.816 123.09 159.816C124.09 159.816 124.09 159.816 124.09 159.816C124.09 159.816 124.09 159.816 124.09 159.816C124.09 159.815 124.09 159.815 124.09 159.814C124.09 159.813 124.09 159.811 124.09 159.809C124.09 159.803 124.09 159.795 124.09 159.785C124.09 159.763 124.091 159.731 124.091 159.689C124.091 159.605 124.092 159.48 124.093 159.318C124.096 158.995 124.101 158.527 124.111 157.947C124.132 156.786 124.174 155.182 124.258 153.407C124.426 149.828 124.76 145.646 125.408 142.971L123.464 142.5ZM129.91 135.46C126.795 136.389 124.296 139.142 123.466 142.495L125.407 142.976C126.083 140.245 128.107 138.085 130.482 137.376L129.91 135.46ZM155.767 134.956C155.767 133.956 155.767 133.956 155.766 133.956C155.766 133.956 155.766 133.956 155.766 133.956C155.765 133.956 155.764 133.956 155.763 133.956C155.76 133.956 155.756 133.956 155.751 133.956C155.741 133.956 155.726 133.956 155.707 133.956C155.667 133.956 155.609 133.956 155.533 133.956C155.381 133.956 155.158 133.957 154.873 133.958C154.302 133.961 153.48 133.967 152.479 133.978C150.477 134.001 147.753 134.047 144.868 134.139C141.984 134.23 138.93 134.368 136.271 134.576C133.642 134.781 131.31 135.06 129.921 135.456L130.471 137.379C131.64 137.045 133.782 136.776 136.427 136.569C139.042 136.366 142.061 136.229 144.931 136.138C147.799 136.047 150.509 136.001 152.502 135.978C153.498 135.967 154.315 135.961 154.883 135.958C155.166 135.957 155.388 135.956 155.538 135.956C155.613 135.956 155.671 135.956 155.709 135.956C155.728 135.956 155.743 135.956 155.752 135.956C155.757 135.956 155.761 135.956 155.763 135.956C155.764 135.956 155.765 135.956 155.766 135.956C155.766 135.956 155.766 135.956 155.767 135.956C155.767 135.956 155.767 135.956 155.767 134.956ZM181.622 135.518C180.23 135.104 177.894 134.814 175.265 134.6C172.605 134.385 169.551 134.242 166.667 134.146C163.781 134.051 161.057 134.003 159.055 133.979C158.053 133.967 157.232 133.962 156.661 133.959C156.375 133.957 156.152 133.956 156 133.956C155.924 133.956 155.866 133.956 155.827 133.956C155.807 133.956 155.792 133.956 155.782 133.956C155.777 133.956 155.773 133.956 155.771 133.956C155.769 133.956 155.768 133.956 155.768 133.956C155.767 133.956 155.767 133.956 155.767 133.956C155.767 133.956 155.767 133.956 155.767 134.956C155.767 135.956 155.767 135.956 155.767 135.956C155.767 135.956 155.767 135.956 155.767 135.956C155.768 135.956 155.769 135.956 155.77 135.956C155.772 135.956 155.776 135.956 155.781 135.956C155.791 135.956 155.805 135.956 155.824 135.956C155.863 135.956 155.92 135.956 155.995 135.956C156.145 135.956 156.367 135.957 156.65 135.959C157.218 135.961 158.035 135.967 159.031 135.979C161.024 136.003 163.734 136.05 166.601 136.145C169.47 136.24 172.489 136.382 175.103 136.594C177.748 136.808 179.887 137.088 181.052 137.435L181.622 135.518ZM149.783 170.903L166.794 160.257L165.733 158.562L148.722 169.208L149.783 170.903ZM148.253 148.763V170.056H150.253V148.763H148.253ZM166.794 158.562L149.783 147.916L148.722 149.611L165.733 160.257L166.794 158.562Z" fill="white" fill-opacity="0.5" mask="url(#path-1-inside-1_5908_246)"/>
</g>
<g filter="url(#filter1_d_5908_246)">
<path d="M115.589 294.912L110.449 288.86H112.603L116.411 293.35L120.219 288.86H122.373L117.233 294.912V300.373H115.589V294.912ZM127.283 299.139C128.533 299.139 129.6 298.698 130.482 297.815C131.365 296.933 131.806 295.866 131.806 294.616C131.806 293.366 131.365 292.3 130.482 291.417C129.6 290.534 128.533 290.093 127.283 290.093C126.033 290.093 124.967 290.534 124.084 291.417C123.201 292.3 122.76 293.366 122.76 294.616C122.76 295.866 123.201 296.933 124.084 297.815C124.967 298.698 126.033 299.139 127.283 299.139ZM127.283 300.784C125.578 300.784 124.122 300.184 122.916 298.983C121.716 297.777 121.115 296.321 121.115 294.616C121.115 292.911 121.716 291.458 122.916 290.258C124.122 289.051 125.578 288.448 127.283 288.448C128.988 288.448 130.441 289.051 131.642 290.258C132.848 291.458 133.451 292.911 133.451 294.616C133.451 296.321 132.848 297.777 131.642 298.983C130.441 300.184 128.988 300.784 127.283 300.784ZM144.553 294.616V288.86H146.198V294.616C146.198 296.206 145.636 297.563 144.512 298.687C143.388 299.811 142.031 300.373 140.442 300.373C138.852 300.373 137.495 299.811 136.371 298.687C135.247 297.563 134.685 296.206 134.685 294.616V288.86H136.33V294.616C136.33 295.751 136.73 296.722 137.53 297.528C138.336 298.328 139.307 298.728 140.442 298.728C141.576 298.728 142.544 298.328 143.345 297.528C144.151 296.722 144.553 295.751 144.553 294.616ZM153.271 300.373H151.626V292.149H153.271V300.373ZM157.383 290.504H147.514V288.86H157.383V290.504ZM168.535 294.616V288.86H170.179V294.616C170.179 296.206 169.617 297.563 168.493 298.687C167.37 299.811 166.013 300.373 164.423 300.373C162.833 300.373 161.476 299.811 160.352 298.687C159.228 297.563 158.666 296.206 158.666 294.616V288.86H160.311V294.616C160.311 295.751 160.711 296.722 161.511 297.528C162.317 298.328 163.288 298.728 164.423 298.728C165.557 298.728 166.525 298.328 167.326 297.528C168.132 296.722 168.535 295.751 168.535 294.616ZM173.469 290.504V297.083H171.824V288.86H179.226C180.136 288.86 180.912 289.18 181.553 289.822C182.195 290.463 182.515 291.239 182.515 292.149C182.515 293.059 182.195 293.835 181.553 294.476C181.504 294.526 181.454 294.572 181.405 294.616C181.454 294.66 181.504 294.707 181.553 294.756C182.195 295.398 182.515 296.173 182.515 297.083C182.515 297.994 182.195 298.769 181.553 299.411C180.912 300.052 180.136 300.373 179.226 300.373H171.824V298.728H179.226C179.681 298.728 180.067 298.569 180.385 298.251C180.709 297.928 180.871 297.539 180.871 297.083C180.871 296.628 180.709 296.242 180.385 295.924C180.067 295.6 179.681 295.439 179.226 295.439H175.114V293.794H179.226C179.681 293.794 180.067 293.635 180.385 293.317C180.709 292.993 180.871 292.604 180.871 292.149C180.871 291.694 180.709 291.307 180.385 290.99C180.067 290.666 179.681 290.504 179.226 290.504H173.469ZM194.029 288.86V290.504H185.805V298.728H194.029V300.373H184.16V288.86H194.029ZM194.029 295.439H187.45V293.794H194.029V295.439Z" fill="white"/>
</g>
<path opacity="0.3" d="M72.6344 43.5463H229.544C231.961 43.5463 234.279 44.5074 235.986 46.2178L254.634 64.8966C256.351 66.6166 257.309 68.952 257.295 71.3824L255.812 319.047C255.796 321.656 254.663 324.132 252.698 325.848L236.51 339.991C234.851 341.44 232.723 342.239 230.521 342.239H67.7635C65.3155 342.239 62.9708 341.253 61.2584 339.504L47.8766 325.833C46.2114 324.131 45.2788 321.846 45.2788 319.465V71.2961C45.2788 68.9156 46.2114 66.6298 47.8766 64.9286L66.1294 46.2816C67.8418 44.5322 70.1865 43.5463 72.6344 43.5463Z" fill="url(#paint0_linear_5908_246)" stroke="white" stroke-width="1.2137"/>
<path opacity="0.3" d="M230.914 32.6743L59.4379 34.9946C56.6306 35.0326 53.957 36.1999 52.0208 38.2329L36.1309 54.9168C34.2825 56.8577 33.2515 59.4352 33.2515 62.1154V325.827C33.2515 328.368 34.1779 330.821 35.8572 332.727L51.9186 350.958C53.9001 353.208 56.753 354.496 59.7506 354.496H231.084C233.63 354.496 236.088 353.566 237.995 351.881L253.939 337.793C256.182 335.812 257.466 332.964 257.466 329.971V57.6654C257.466 54.7287 256.229 51.9278 254.058 49.9499L238.085 35.3958C236.126 33.6114 233.563 32.6385 230.914 32.6743Z" fill="url(#paint1_linear_5908_246)" stroke="white" stroke-width="1.45644"/>
<g filter="url(#filter2_d_5908_246)">
<path d="M234.165 20L44.078 23.0343L20.3171 48.34V343.452L42.89 362.871L237.729 366.512L259.708 343.452V42.4535L234.165 20Z" stroke="#56FFEB" stroke-width="2.57199" shape-rendering="crispEdges"/>
</g>
<g filter="url(#filter3_f_5908_246)">
<path d="M234.165 20L44.078 23.0343L20.3171 48.34V343.452L42.89 362.871L237.729 366.512L259.708 343.452V42.4535L234.165 20Z" stroke="white" stroke-width="2"/>
</g>
<path d="M35.3682 54.9996L258.051 53.2785M34.3893 57.2353L259.523 55.2569M34.3893 59.2137L260.994 57.2353M34.3893 61.1921L261.484 59.2137M34.3893 63.1706L261.484 61.1921M34.3893 65.149L261.484 63.1706M34.3893 67.1274L261.484 65.149M34.3893 69.1059L261.484 67.1274M34.3893 71.0843L261.484 69.1059M34.3893 73.0627L261.484 71.0843M34.3893 75.0411L261.484 73.0627M34.3893 77.0196L261.484 75.0411M34.3893 78.998L261.484 77.0196M34.3893 80.9764L261.484 78.998M34.3893 82.9548L261.484 80.9764M34.3893 84.9333L261.484 82.9548M34.3893 86.9117L261.484 84.9333M34.3893 88.8901L261.484 86.9117M34.3893 90.8685L261.484 88.8901M34.3893 92.847L261.484 90.8685M34.3893 94.8254L261.484 92.847M34.3893 96.8038L261.484 94.8254M34.3893 98.7823L261.484 96.8038M34.3893 100.761L261.484 98.7823M34.3893 102.739L261.484 100.761M34.3893 104.718L261.484 102.739M34.3893 106.696L261.484 104.718M34.3893 108.674L261.484 106.696M34.3893 110.653L261.484 108.674M34.3893 112.631L261.484 110.653M34.3893 114.61L261.484 112.631M34.3893 116.588L261.484 114.61M34.3893 118.567L261.484 116.588M34.3893 120.545L261.484 118.567M34.3893 122.523L261.484 120.545M34.3893 124.502L261.484 122.523M34.3893 126.48L261.484 124.502M34.3893 128.459L261.484 126.48M34.3893 130.437L261.484 128.459M34.3893 132.416L261.484 130.437M34.3893 134.394L261.484 132.416M34.3893 136.372L261.484 134.394M34.3893 138.351L261.484 136.372M34.3893 140.329L261.484 138.351M34.3893 142.308L261.484 140.329M34.3893 144.286L261.484 142.308M34.3893 146.265L261.484 144.286M34.3893 148.243L261.484 146.265M34.3893 150.221L261.484 148.243M34.3893 152.2L261.484 150.221M34.3893 154.178L261.484 152.2M34.3893 156.157L261.484 154.178M34.3893 158.135L261.484 156.157M34.3893 160.114L261.484 158.135M34.3893 162.092L261.484 160.114M34.3893 164.07L261.484 162.092M34.3893 166.049L261.484 164.07M34.3893 168.027L261.484 166.049M34.3893 170.006L261.484 168.027M34.3893 171.984L261.484 170.006M34.3893 173.963L261.484 171.984M34.3893 175.941L261.484 173.963M34.3893 177.919L261.484 175.941M34.3893 179.898L261.484 177.919M34.3893 181.876L261.484 179.898M34.3893 183.855L261.484 181.876M34.3893 185.833L261.484 183.855M34.3893 187.812L261.484 185.833M34.3893 189.79L261.484 187.812M34.3893 191.768L261.484 189.79M34.3893 193.747L261.484 191.768M34.3893 195.725L261.484 193.747M34.3893 197.704L261.484 195.725M34.3893 199.682L261.484 197.704M34.3893 201.661L261.484 199.682M34.3893 203.639L261.484 201.661M34.3893 205.617L261.484 203.639M34.3893 207.596L261.484 205.617M34.3893 209.574L261.484 207.596M34.3893 211.553L261.484 209.574M34.3893 213.531L261.484 211.553M34.3893 215.51L261.484 213.531M34.3893 217.488L261.484 215.51M34.3893 219.466L261.484 217.488M34.3893 221.445L261.484 219.466M34.3893 223.423L261.484 221.445M34.3893 225.402L261.484 223.423M34.3893 227.38L261.484 225.402M34.3893 229.359L261.484 227.38M34.3893 231.337L261.484 229.359M34.3893 233.315L261.484 231.337M34.3893 235.294L261.484 233.315M34.3893 237.272L261.484 235.294M34.3893 239.251L261.484 237.272M34.3893 241.229L261.484 239.251M34.3893 243.208L261.484 241.229M34.3893 245.186L261.484 243.208M34.3893 247.164L261.484 245.186M34.3893 249.143L261.484 247.164M34.3893 251.121L261.484 249.143M34.3893 253.1L261.484 251.121M34.3893 255.078L261.484 253.1M34.3893 257.057L261.484 255.078M34.3893 259.035L261.484 257.057M34.3893 261.013L261.484 259.035M34.3893 262.992L261.484 261.013M34.3893 264.97L261.484 262.992M34.3893 266.949L261.484 264.97M34.3893 268.927L261.484 266.949M34.3893 270.905L261.484 268.927M34.3893 272.884L261.484 270.905M34.3893 274.862L261.484 272.884M34.3893 276.841L261.484 274.862M34.3893 278.819L261.484 276.841M34.3893 280.798L261.484 278.819M34.3893 282.776L261.484 280.798M34.3893 284.754L261.484 282.776M34.3893 286.733L261.484 284.754M34.3893 288.711L261.484 286.733M34.3893 290.69L261.484 288.711M34.3893 292.668L261.484 290.69M34.3893 294.646L261.484 292.668M34.3893 296.625L261.484 294.646M34.3893 298.603L261.484 296.625M34.3893 300.582L261.484 298.603M34.3893 302.56L261.484 300.582M34.3893 304.538L261.484 302.56M34.3893 306.517L261.484 304.538M34.3893 308.495L261.484 306.517M34.3893 310.474L261.484 308.495M34.3893 312.452L261.484 310.474M34.3893 314.431L261.484 312.452M34.3893 316.409L261.484 314.431M34.3893 318.387L261.484 316.409M34.3893 320.366L261.484 318.387M34.3893 322.344L261.484 320.366M34.3893 324.323L261.484 322.344M34.3893 326.301L261.484 324.323M34.3893 328.28L261.484 326.301M34.3893 330.258L261.484 328.28M35.3682 332L261.484 330.258M37.3323 334L261.484 332.236M55.4348 35.9996L237.451 34.4834M52.4982 36.9996L239.413 35.9672M50.5405 38.9996L240.884 37.451M49.1039 40.9996L242.846 39.4295M47.142 42.9996L244.808 41.4079M45.18 44.9996L247.26 43.3863M43.2181 46.9996L249.222 45.3648M41.2562 48.9996L251.675 47.3432M39.2836 50.9996L254.618 49.3216M37.3323 52.9996L256.089 51.3M38.3048 336L261.484 334.215M40.2625 338L259.032 336.194M42.2371 340L257.07 338.172M43.6885 342L255.599 340.151M45.6705 344L253.146 342.129M47.6039 346L251.675 344.107M49.0722 348L250.203 346.086M51.0299 350L247.751 348.064M52.9877 352L245.789 350.043M55.4348 353.5L243.336 352.021" stroke="white" stroke-opacity="0.1"/>
<g style="mix-blend-mode:hard-light" opacity="0.3">
<path d="M72.6344 43.5463H229.544C231.961 43.5463 234.279 44.5074 235.986 46.2178L254.634 64.8966C256.351 66.6166 257.309 68.952 257.295 71.3824L255.812 319.047C255.796 321.656 254.663 324.132 252.698 325.848L236.51 339.991C234.851 341.44 232.723 342.239 230.521 342.239H67.7635C65.3155 342.239 62.9708 341.253 61.2584 339.504L47.8766 325.833C46.2114 324.131 45.2788 321.846 45.2788 319.465V71.2961C45.2788 68.9156 46.2114 66.6298 47.8766 64.9286L66.1294 46.2816C67.8418 44.5322 70.1865 43.5463 72.6344 43.5463Z" fill="url(#paint2_linear_5908_246)"/>
<path d="M72.6344 43.5463H229.544C231.961 43.5463 234.279 44.5074 235.986 46.2178L254.634 64.8966C256.351 66.6166 257.309 68.952 257.295 71.3824L255.812 319.047C255.796 321.656 254.663 324.132 252.698 325.848L236.51 339.991C234.851 341.44 232.723 342.239 230.521 342.239H67.7635C65.3155 342.239 62.9708 341.253 61.2584 339.504L47.8766 325.833C46.2114 324.131 45.2788 321.846 45.2788 319.465V71.2961C45.2788 68.9156 46.2114 66.6298 47.8766 64.9286L66.1294 46.2816C67.8418 44.5322 70.1865 43.5463 72.6344 43.5463Z" stroke="white" stroke-width="1.2137"/>
</g>
<path opacity="0.3" d="M230.914 32.6743L59.4379 34.9946C56.6306 35.0326 53.957 36.1999 52.0208 38.2329L36.1309 54.9168C34.2825 56.8577 33.2515 59.4352 33.2515 62.1154V325.827C33.2515 328.368 34.1779 330.821 35.8572 332.727L51.9186 350.958C53.9001 353.208 56.753 354.496 59.7506 354.496H231.084C233.63 354.496 236.088 353.566 237.995 351.881L253.939 337.793C256.182 335.812 257.466 332.964 257.466 329.971V57.6654C257.466 54.7287 256.229 51.9278 254.058 49.9499L238.085 35.3958C236.126 33.6114 233.563 32.6385 230.914 32.6743Z" fill="url(#paint3_linear_5908_246)" stroke="white" stroke-width="1.45644"/>
<g filter="url(#filter4_d_5908_246)">
<path d="M234.165 20L44.078 23.0343L20.3171 48.34V343.452L42.89 362.871L237.729 366.512L259.708 343.452V42.4535L234.165 20Z" stroke="#56FFEB" stroke-width="2.57199" shape-rendering="crispEdges"/>
</g>
<g filter="url(#filter5_f_5908_246)">
<path d="M234.165 20L44.078 23.0343L20.3171 48.34V343.452L42.89 362.871L237.729 366.512L259.708 343.452V42.4535L234.165 20Z" stroke="white" stroke-width="2"/>
</g>
<path d="M35.3682 54.9996L258.051 53.2785M34.3893 57.2353L259.523 55.2569M34.3893 59.2137L260.994 57.2353M34.3893 61.1921L261.484 59.2137M34.3893 63.1706L261.484 61.1921M34.3893 65.149L261.484 63.1706M34.3893 67.1274L261.484 65.149M34.3893 69.1059L261.484 67.1274M34.3893 71.0843L261.484 69.1059M34.3893 73.0627L261.484 71.0843M34.3893 75.0411L261.484 73.0627M34.3893 77.0196L261.484 75.0411M34.3893 78.998L261.484 77.0196M34.3893 80.9764L261.484 78.998M34.3893 82.9548L261.484 80.9764M34.3893 84.9333L261.484 82.9548M34.3893 86.9117L261.484 84.9333M34.3893 88.8901L261.484 86.9117M34.3893 90.8685L261.484 88.8901M34.3893 92.847L261.484 90.8685M34.3893 94.8254L261.484 92.847M34.3893 96.8038L261.484 94.8254M34.3893 98.7823L261.484 96.8038M34.3893 100.761L261.484 98.7823M34.3893 102.739L261.484 100.761M34.3893 104.718L261.484 102.739M34.3893 106.696L261.484 104.718M34.3893 108.674L261.484 106.696M34.3893 110.653L261.484 108.674M34.3893 112.631L261.484 110.653M34.3893 114.61L261.484 112.631M34.3893 116.588L261.484 114.61M34.3893 118.567L261.484 116.588M34.3893 120.545L261.484 118.567M34.3893 122.523L261.484 120.545M34.3893 124.502L261.484 122.523M34.3893 126.48L261.484 124.502M34.3893 128.459L261.484 126.48M34.3893 130.437L261.484 128.459M34.3893 132.416L261.484 130.437M34.3893 134.394L261.484 132.416M34.3893 136.372L261.484 134.394M34.3893 138.351L261.484 136.372M34.3893 140.329L261.484 138.351M34.3893 142.308L261.484 140.329M34.3893 144.286L261.484 142.308M34.3893 146.265L261.484 144.286M34.3893 148.243L261.484 146.265M34.3893 150.221L261.484 148.243M34.3893 152.2L261.484 150.221M34.3893 154.178L261.484 152.2M34.3893 156.157L261.484 154.178M34.3893 158.135L261.484 156.157M34.3893 160.114L261.484 158.135M34.3893 162.092L261.484 160.114M34.3893 164.07L261.484 162.092M34.3893 166.049L261.484 164.07M34.3893 168.027L261.484 166.049M34.3893 170.006L261.484 168.027M34.3893 171.984L261.484 170.006M34.3893 173.963L261.484 171.984M34.3893 175.941L261.484 173.963M34.3893 177.919L261.484 175.941M34.3893 179.898L261.484 177.919M34.3893 181.876L261.484 179.898M34.3893 183.855L261.484 181.876M34.3893 185.833L261.484 183.855M34.3893 187.812L261.484 185.833M34.3893 189.79L261.484 187.812M34.3893 191.768L261.484 189.79M34.3893 193.747L261.484 191.768M34.3893 195.725L261.484 193.747M34.3893 197.704L261.484 195.725M34.3893 199.682L261.484 197.704M34.3893 201.661L261.484 199.682M34.3893 203.639L261.484 201.661M34.3893 205.617L261.484 203.639M34.3893 207.596L261.484 205.617M34.3893 209.574L261.484 207.596M34.3893 211.553L261.484 209.574M34.3893 213.531L261.484 211.553M34.3893 215.51L261.484 213.531M34.3893 217.488L261.484 215.51M34.3893 219.466L261.484 217.488M34.3893 221.445L261.484 219.466M34.3893 223.423L261.484 221.445M34.3893 225.402L261.484 223.423M34.3893 227.38L261.484 225.402M34.3893 229.359L261.484 227.38M34.3893 231.337L261.484 229.359M34.3893 233.315L261.484 231.337M34.3893 235.294L261.484 233.315M34.3893 237.272L261.484 235.294M34.3893 239.251L261.484 237.272M34.3893 241.229L261.484 239.251M34.3893 243.208L261.484 241.229M34.3893 245.186L261.484 243.208M34.3893 247.164L261.484 245.186M34.3893 249.143L261.484 247.164M34.3893 251.121L261.484 249.143M34.3893 253.1L261.484 251.121M34.3893 255.078L261.484 253.1M34.3893 257.057L261.484 255.078M34.3893 259.035L261.484 257.057M34.3893 261.013L261.484 259.035M34.3893 262.992L261.484 261.013M34.3893 264.97L261.484 262.992M34.3893 266.949L261.484 264.97M34.3893 268.927L261.484 266.949M34.3893 270.905L261.484 268.927M34.3893 272.884L261.484 270.905M34.3893 274.862L261.484 272.884M34.3893 276.841L261.484 274.862M34.3893 278.819L261.484 276.841M34.3893 280.798L261.484 278.819M34.3893 282.776L261.484 280.798M34.3893 284.754L261.484 282.776M34.3893 286.733L261.484 284.754M34.3893 288.711L261.484 286.733M34.3893 290.69L261.484 288.711M34.3893 292.668L261.484 290.69M34.3893 294.646L261.484 292.668M34.3893 296.625L261.484 294.646M34.3893 298.603L261.484 296.625M34.3893 300.582L261.484 298.603M34.3893 302.56L261.484 300.582M34.3893 304.538L261.484 302.56M34.3893 306.517L261.484 304.538M34.3893 308.495L261.484 306.517M34.3893 310.474L261.484 308.495M34.3893 312.452L261.484 310.474M34.3893 314.431L261.484 312.452M34.3893 316.409L261.484 314.431M34.3893 318.387L261.484 316.409M34.3893 320.366L261.484 318.387M34.3893 322.344L261.484 320.366M34.3893 324.323L261.484 322.344M34.3893 326.301L261.484 324.323M34.3893 328.28L261.484 326.301M34.3893 330.258L261.484 328.28M35.3682 332L261.484 330.258M37.3323 334L261.484 332.236M55.4348 35.9996L237.451 34.4834M52.4982 36.9996L239.413 35.9672M50.5405 38.9996L240.884 37.451M49.1039 40.9996L242.846 39.4295M47.142 42.9996L244.808 41.4079M45.18 44.9996L247.26 43.3863M43.2181 46.9996L249.222 45.3648M41.2562 48.9996L251.675 47.3432M39.2836 50.9996L254.618 49.3216M37.3323 52.9996L256.089 51.3M38.3048 336L261.484 334.215M40.2625 338L259.032 336.194M42.2371 340L257.07 338.172M43.6885 342L255.599 340.151M45.6705 344L253.146 342.129M47.6039 346L251.675 344.107M49.0722 348L250.203 346.086M51.0299 350L247.751 348.064M52.9877 352L245.789 350.043M55.4348 353.5L243.336 352.021" stroke="white" stroke-opacity="0.1"/>
<g filter="url(#filter6_d_5908_246)">
<mask id="path-14-inside-2_5908_246" fill="white">
<path fill-rule="evenodd" clip-rule="evenodd" d="M181.337 136.476C184.136 137.295 186.344 139.694 187.097 142.735C188.497 148.292 188.443 159.874 188.443 159.874C188.443 159.874 188.443 171.398 187.097 176.955C186.344 179.997 184.136 182.395 181.337 183.214C176.223 184.676 155.767 184.676 155.767 184.676C155.767 184.676 135.364 184.676 130.196 183.156C127.397 182.337 125.19 179.938 124.436 176.897C123.09 171.398 123.09 159.816 123.09 159.816C123.09 159.816 123.09 148.292 124.436 142.735C125.19 139.694 127.451 137.237 130.196 136.418C135.31 134.956 155.767 134.956 155.767 134.956C155.767 134.956 176.223 134.956 181.337 136.476ZM166.264 159.41L149.253 170.056V148.763L166.264 159.41Z"/>
</mask>
<path fill-rule="evenodd" clip-rule="evenodd" d="M181.337 136.476C184.136 137.295 186.344 139.694 187.097 142.735C188.497 148.292 188.443 159.874 188.443 159.874C188.443 159.874 188.443 171.398 187.097 176.955C186.344 179.997 184.136 182.395 181.337 183.214C176.223 184.676 155.767 184.676 155.767 184.676C155.767 184.676 135.364 184.676 130.196 183.156C127.397 182.337 125.19 179.938 124.436 176.897C123.09 171.398 123.09 159.816 123.09 159.816C123.09 159.816 123.09 148.292 124.436 142.735C125.19 139.694 127.451 137.237 130.196 136.418C135.31 134.956 155.767 134.956 155.767 134.956C155.767 134.956 176.223 134.956 181.337 136.476ZM166.264 159.41L149.253 170.056V148.763L166.264 159.41Z" fill="white" fill-opacity="0.7" shape-rendering="crispEdges"/>
<path d="M187.097 142.735L186.127 142.976L186.127 142.98L187.097 142.735ZM181.337 136.476L181.052 137.435L181.056 137.436L181.337 136.476ZM188.443 159.874L187.443 159.87V159.874H188.443ZM187.097 176.955L188.068 177.196L188.069 177.19L187.097 176.955ZM181.337 183.214L181.612 184.175L181.618 184.174L181.337 183.214ZM130.196 183.156L130.479 182.196L130.477 182.196L130.196 183.156ZM124.436 176.897L123.465 177.134L123.466 177.137L124.436 176.897ZM124.436 142.735L123.466 142.495L123.464 142.5L124.436 142.735ZM130.196 136.418L129.921 135.456L129.91 135.46L130.196 136.418ZM149.253 170.056H148.253V171.861L149.783 170.903L149.253 170.056ZM166.264 159.41L166.794 160.257L168.149 159.41L166.794 158.562L166.264 159.41ZM149.253 148.763L149.783 147.916L148.253 146.958V148.763H149.253ZM188.068 142.495C187.236 139.139 184.789 136.444 181.618 135.517L181.056 137.436C183.484 138.146 185.451 140.248 186.127 142.976L188.068 142.495ZM188.443 159.874C189.443 159.879 189.443 159.879 189.443 159.879C189.443 159.879 189.443 159.879 189.443 159.878C189.443 159.878 189.443 159.877 189.443 159.877C189.443 159.875 189.443 159.873 189.443 159.87C189.443 159.864 189.443 159.855 189.443 159.844C189.443 159.821 189.443 159.787 189.443 159.744C189.443 159.656 189.443 159.527 189.443 159.362C189.441 159.031 189.438 158.554 189.429 157.964C189.412 156.784 189.375 155.152 189.294 153.344C189.133 149.757 188.794 145.379 188.067 142.491L186.127 142.98C186.8 145.649 187.134 149.84 187.296 153.434C187.376 155.216 187.413 156.827 187.43 157.992C187.438 158.575 187.441 159.045 187.443 159.37C187.443 159.532 187.443 159.658 187.443 159.742C187.443 159.785 187.443 159.817 187.443 159.838C187.443 159.849 187.443 159.857 187.443 159.862C187.443 159.865 187.443 159.867 187.443 159.868C187.443 159.869 187.443 159.869 187.443 159.87C187.443 159.87 187.443 159.87 187.443 159.87C187.443 159.87 187.443 159.87 188.443 159.874ZM188.069 177.19C188.767 174.308 189.106 169.95 189.274 166.378C189.358 164.578 189.401 162.954 189.422 161.78C189.432 161.193 189.438 160.717 189.44 160.389C189.442 160.224 189.442 160.096 189.443 160.009C189.443 159.966 189.443 159.932 189.443 159.91C189.443 159.898 189.443 159.89 189.443 159.884C189.443 159.881 189.443 159.879 189.443 159.877C189.443 159.876 189.443 159.876 189.443 159.875C189.443 159.875 189.443 159.875 189.443 159.875C189.443 159.875 189.443 159.874 188.443 159.874C187.443 159.874 187.443 159.874 187.443 159.874C187.443 159.875 187.443 159.875 187.443 159.875C187.443 159.875 187.443 159.875 187.443 159.876C187.443 159.877 187.443 159.879 187.443 159.882C187.443 159.887 187.443 159.895 187.443 159.906C187.443 159.927 187.443 159.959 187.443 160.001C187.442 160.086 187.442 160.211 187.44 160.372C187.438 160.695 187.433 161.164 187.422 161.744C187.401 162.904 187.359 164.508 187.276 166.284C187.107 169.862 186.773 174.045 186.125 176.72L188.069 177.19ZM181.618 184.174C184.789 183.246 187.236 180.551 188.068 177.196L186.127 176.715C185.451 179.442 183.484 181.544 181.056 182.254L181.618 184.174ZM155.767 184.676C155.767 185.676 155.767 185.676 155.767 185.676C155.767 185.676 155.767 185.676 155.768 185.676C155.768 185.676 155.769 185.676 155.771 185.676C155.773 185.676 155.777 185.676 155.782 185.676C155.792 185.676 155.807 185.676 155.827 185.676C155.866 185.676 155.924 185.676 156 185.676C156.152 185.676 156.375 185.675 156.661 185.674C157.232 185.671 158.053 185.665 159.054 185.653C161.056 185.631 163.78 185.585 166.666 185.493C169.55 185.401 172.603 185.264 175.262 185.056C177.891 184.851 180.224 184.572 181.612 184.175L181.062 182.253C179.893 182.587 177.751 182.856 175.106 183.062C172.491 183.266 169.472 183.403 166.602 183.494C163.734 183.585 161.025 183.631 159.031 183.654C158.035 183.665 157.218 183.671 156.651 183.674C156.367 183.675 156.146 183.676 155.995 183.676C155.92 183.676 155.863 183.676 155.824 183.676C155.805 183.676 155.791 183.676 155.781 183.676C155.776 183.676 155.773 183.676 155.77 183.676C155.769 183.676 155.768 183.676 155.767 183.676C155.767 183.676 155.767 183.676 155.767 183.676C155.767 183.676 155.767 183.676 155.767 184.676ZM129.914 184.115C131.318 184.528 133.659 184.818 136.291 185.032C138.953 185.247 142.006 185.39 144.886 185.486C147.769 185.581 150.488 185.629 152.486 185.653C153.485 185.664 154.305 185.67 154.875 185.673C155.16 185.675 155.382 185.676 155.534 185.676C155.61 185.676 155.668 185.676 155.707 185.676C155.726 185.676 155.741 185.676 155.751 185.676C155.756 185.676 155.76 185.676 155.763 185.676C155.764 185.676 155.765 185.676 155.766 185.676C155.766 185.676 155.766 185.676 155.766 185.676C155.767 185.676 155.767 185.676 155.767 184.676C155.767 183.676 155.767 183.676 155.767 183.676C155.766 183.676 155.766 183.676 155.766 183.676C155.765 183.676 155.764 183.676 155.763 183.676C155.761 183.676 155.757 183.676 155.752 183.676C155.743 183.676 155.728 183.676 155.709 183.676C155.671 183.676 155.614 183.676 155.539 183.676C155.389 183.676 155.168 183.675 154.885 183.673C154.319 183.67 153.504 183.665 152.51 183.653C150.521 183.629 147.817 183.582 144.953 183.487C142.087 183.392 139.07 183.25 136.453 183.038C133.806 182.824 131.659 182.544 130.479 182.196L129.914 184.115ZM123.466 177.137C124.297 180.493 126.745 183.188 129.915 184.115L130.477 182.196C128.049 181.485 126.083 179.384 125.407 176.656L123.466 177.137ZM123.09 159.816C122.09 159.816 122.09 159.816 122.09 159.816C122.09 159.816 122.09 159.817 122.09 159.817C122.09 159.817 122.09 159.818 122.09 159.819C122.09 159.82 122.09 159.822 122.09 159.825C122.09 159.831 122.09 159.84 122.09 159.851C122.09 159.874 122.091 159.907 122.091 159.951C122.091 160.039 122.092 160.167 122.093 160.332C122.096 160.663 122.101 161.14 122.112 161.73C122.133 162.908 122.175 164.538 122.26 166.341C122.428 169.92 122.766 174.28 123.465 177.134L125.408 176.659C124.76 174.015 124.426 169.834 124.258 166.247C124.174 164.468 124.132 162.858 124.111 161.694C124.101 161.111 124.096 160.641 124.093 160.316C124.092 160.154 124.091 160.028 124.091 159.944C124.091 159.901 124.09 159.869 124.09 159.848C124.09 159.837 124.09 159.829 124.09 159.823C124.09 159.821 124.09 159.819 124.09 159.818C124.09 159.817 124.09 159.817 124.09 159.816C124.09 159.816 124.09 159.816 124.09 159.816C124.09 159.816 124.09 159.816 123.09 159.816ZM123.464 142.5C122.766 145.382 122.428 149.74 122.26 153.313C122.175 155.112 122.133 156.736 122.112 157.911C122.101 158.498 122.096 158.973 122.093 159.302C122.092 159.466 122.091 159.594 122.091 159.681C122.091 159.725 122.09 159.758 122.09 159.781C122.09 159.792 122.09 159.801 122.09 159.807C122.09 159.81 122.09 159.812 122.09 159.813C122.09 159.814 122.09 159.815 122.09 159.815C122.09 159.815 122.09 159.816 122.09 159.816C122.09 159.816 122.09 159.816 123.09 159.816C124.09 159.816 124.09 159.816 124.09 159.816C124.09 159.816 124.09 159.816 124.09 159.816C124.09 159.815 124.09 159.815 124.09 159.814C124.09 159.813 124.09 159.811 124.09 159.809C124.09 159.803 124.09 159.795 124.09 159.785C124.09 159.763 124.091 159.731 124.091 159.689C124.091 159.605 124.092 159.48 124.093 159.318C124.096 158.995 124.101 158.527 124.111 157.947C124.132 156.786 124.174 155.182 124.258 153.407C124.426 149.828 124.76 145.646 125.408 142.971L123.464 142.5ZM129.91 135.46C126.795 136.389 124.296 139.142 123.466 142.495L125.407 142.976C126.083 140.245 128.107 138.085 130.482 137.376L129.91 135.46ZM155.767 134.956C155.767 133.956 155.767 133.956 155.766 133.956C155.766 133.956 155.766 133.956 155.766 133.956C155.765 133.956 155.764 133.956 155.763 133.956C155.76 133.956 155.756 133.956 155.751 133.956C155.741 133.956 155.726 133.956 155.707 133.956C155.667 133.956 155.609 133.956 155.533 133.956C155.381 133.956 155.158 133.957 154.873 133.958C154.302 133.961 153.48 133.967 152.479 133.978C150.477 134.001 147.753 134.047 144.868 134.139C141.984 134.23 138.93 134.368 136.271 134.576C133.642 134.781 131.31 135.06 129.921 135.456L130.471 137.379C131.64 137.045 133.782 136.776 136.427 136.569C139.042 136.366 142.061 136.229 144.931 136.138C147.799 136.047 150.509 136.001 152.502 135.978C153.498 135.967 154.315 135.961 154.883 135.958C155.166 135.957 155.388 135.956 155.538 135.956C155.613 135.956 155.671 135.956 155.709 135.956C155.728 135.956 155.743 135.956 155.752 135.956C155.757 135.956 155.761 135.956 155.763 135.956C155.764 135.956 155.765 135.956 155.766 135.956C155.766 135.956 155.766 135.956 155.767 135.956C155.767 135.956 155.767 135.956 155.767 134.956ZM181.622 135.518C180.23 135.104 177.894 134.814 175.265 134.6C172.605 134.385 169.551 134.242 166.667 134.146C163.781 134.051 161.057 134.003 159.055 133.979C158.053 133.967 157.232 133.962 156.661 133.959C156.375 133.957 156.152 133.956 156 133.956C155.924 133.956 155.866 133.956 155.827 133.956C155.807 133.956 155.792 133.956 155.782 133.956C155.777 133.956 155.773 133.956 155.771 133.956C155.769 133.956 155.768 133.956 155.768 133.956C155.767 133.956 155.767 133.956 155.767 133.956C155.767 133.956 155.767 133.956 155.767 134.956C155.767 135.956 155.767 135.956 155.767 135.956C155.767 135.956 155.767 135.956 155.767 135.956C155.768 135.956 155.769 135.956 155.77 135.956C155.772 135.956 155.776 135.956 155.781 135.956C155.791 135.956 155.805 135.956 155.824 135.956C155.863 135.956 155.92 135.956 155.995 135.956C156.145 135.956 156.367 135.957 156.65 135.959C157.218 135.961 158.035 135.967 159.031 135.979C161.024 136.003 163.734 136.05 166.601 136.145C169.47 136.24 172.489 136.382 175.103 136.594C177.748 136.808 179.887 137.088 181.052 137.435L181.622 135.518ZM149.783 170.903L166.794 160.257L165.733 158.562L148.722 169.208L149.783 170.903ZM148.253 148.763V170.056H150.253V148.763H148.253ZM166.794 158.562L149.783 147.916L148.722 149.611L165.733 160.257L166.794 158.562Z" fill="white" fill-opacity="0.5" mask="url(#path-14-inside-2_5908_246)"/>
</g>
<g filter="url(#filter7_d_5908_246)">
<path d="M115.589 294.912L110.449 288.86H112.603L116.411 293.35L120.219 288.86H122.373L117.233 294.912V300.373H115.589V294.912ZM127.283 299.139C128.533 299.139 129.6 298.698 130.482 297.815C131.365 296.933 131.806 295.866 131.806 294.616C131.806 293.366 131.365 292.3 130.482 291.417C129.6 290.534 128.533 290.093 127.283 290.093C126.033 290.093 124.967 290.534 124.084 291.417C123.201 292.3 122.76 293.366 122.76 294.616C122.76 295.866 123.201 296.933 124.084 297.815C124.967 298.698 126.033 299.139 127.283 299.139ZM127.283 300.784C125.578 300.784 124.122 300.184 122.916 298.983C121.716 297.777 121.115 296.321 121.115 294.616C121.115 292.911 121.716 291.458 122.916 290.258C124.122 289.051 125.578 288.448 127.283 288.448C128.988 288.448 130.441 289.051 131.642 290.258C132.848 291.458 133.451 292.911 133.451 294.616C133.451 296.321 132.848 297.777 131.642 298.983C130.441 300.184 128.988 300.784 127.283 300.784ZM144.553 294.616V288.86H146.198V294.616C146.198 296.206 145.636 297.563 144.512 298.687C143.388 299.811 142.031 300.373 140.442 300.373C138.852 300.373 137.495 299.811 136.371 298.687C135.247 297.563 134.685 296.206 134.685 294.616V288.86H136.33V294.616C136.33 295.751 136.73 296.722 137.53 297.528C138.336 298.328 139.307 298.728 140.442 298.728C141.576 298.728 142.544 298.328 143.345 297.528C144.151 296.722 144.553 295.751 144.553 294.616ZM153.271 300.373H151.626V292.149H153.271V300.373ZM157.383 290.504H147.514V288.86H157.383V290.504ZM168.535 294.616V288.86H170.179V294.616C170.179 296.206 169.617 297.563 168.493 298.687C167.37 299.811 166.013 300.373 164.423 300.373C162.833 300.373 161.476 299.811 160.352 298.687C159.228 297.563 158.666 296.206 158.666 294.616V288.86H160.311V294.616C160.311 295.751 160.711 296.722 161.511 297.528C162.317 298.328 163.288 298.728 164.423 298.728C165.557 298.728 166.525 298.328 167.326 297.528C168.132 296.722 168.535 295.751 168.535 294.616ZM173.469 290.504V297.083H171.824V288.86H179.226C180.136 288.86 180.912 289.18 181.553 289.822C182.195 290.463 182.515 291.239 182.515 292.149C182.515 293.059 182.195 293.835 181.553 294.476C181.504 294.526 181.454 294.572 181.405 294.616C181.454 294.66 181.504 294.707 181.553 294.756C182.195 295.398 182.515 296.173 182.515 297.083C182.515 297.994 182.195 298.769 181.553 299.411C180.912 300.052 180.136 300.373 179.226 300.373H171.824V298.728H179.226C179.681 298.728 180.067 298.569 180.385 298.251C180.709 297.928 180.871 297.539 180.871 297.083C180.871 296.628 180.709 296.242 180.385 295.924C180.067 295.6 179.681 295.439 179.226 295.439H175.114V293.794H179.226C179.681 293.794 180.067 293.635 180.385 293.317C180.709 292.993 180.871 292.604 180.871 292.149C180.871 291.694 180.709 291.307 180.385 290.99C180.067 290.666 179.681 290.504 179.226 290.504H173.469ZM194.029 288.86V290.504H185.805V298.728H194.029V300.373H184.16V288.86H194.029ZM194.029 295.439H187.45V293.794H194.029V295.439Z" fill="white"/>
</g>
<path d="M25.9999 79.3385L25.9999 116.324L34.5732 111.902L34.5732 84.5647L25.9999 79.3385Z" fill="#A0FFF4"/>
<path d="M181.424 364.917L134.836 364.438L140.508 354.665L174.942 355.019L181.424 364.917Z" fill="#94FFF2"/>
<path d="M226.998 365.386L188.716 364.992L193.192 374.87L221.488 375.161L226.998 365.386Z" fill="#94FFF2"/>
<defs>
<filter id="filter0_d_5908_246" x="105.09" y="120.956" width="101.353" height="85.7207" filterUnits="userSpaceOnUse" color-interpolation-filters="sRGB">
<feFlood flood-opacity="0" result="BackgroundImageFix"/>
<feColorMatrix in="SourceAlpha" type="matrix" values="0 0 0 0 0 0 0 0 0 0 0 0 0 0 0 0 0 0 127 0" result="hardAlpha"/>
<feOffset dy="4"/>
<feGaussianBlur stdDeviation="9"/>
<feComposite in2="hardAlpha" operator="out"/>
<feColorMatrix type="matrix" values="0 0 0 0 0.337255 0 0 0 0 1 0 0 0 0 0.921569 0 0 0 0.7 0"/>
<feBlend mode="normal" in2="BackgroundImageFix" result="effect1_dropShadow_5908_246"/>
<feBlend mode="normal" in="SourceGraphic" in2="effect1_dropShadow_5908_246" result="shape"/>
</filter>
<filter id="filter1_d_5908_246" x="92.4487" y="274.448" width="119.58" height="48.3359" filterUnits="userSpaceOnUse" color-interpolation-filters="sRGB">
<feFlood flood-opacity="0" result="BackgroundImageFix"/>
<feColorMatrix in="SourceAlpha" type="matrix" values="0 0 0 0 0 0 0 0 0 0 0 0 0 0 0 0 0 0 127 0" result="hardAlpha"/>
<feOffset dy="4"/>
<feGaussianBlur stdDeviation="9"/>
<feComposite in2="hardAlpha" operator="out"/>
<feColorMatrix type="matrix" values="0 0 0 0 0.337255 0 0 0 0 1 0 0 0 0 0.921569 0 0 0 1 0"/>
<feBlend mode="normal" in2="BackgroundImageFix" result="effect1_dropShadow_5908_246"/>
<feBlend mode="normal" in="SourceGraphic" in2="effect1_dropShadow_5908_246" result="shape"/>
</filter>
<filter id="filter2_d_5908_246" x="0.825611" y="0.500507" width="278.374" height="385.514" filterUnits="userSpaceOnUse" color-interpolation-filters="sRGB">
<feFlood flood-opacity="0" result="BackgroundImageFix"/>
<feColorMatrix in="SourceAlpha" type="matrix" values="0 0 0 0 0 0 0 0 0 0 0 0 0 0 0 0 0 0 127 0" result="hardAlpha"/>
<feOffset/>
<feGaussianBlur stdDeviation="9.10277"/>
<feComposite in2="hardAlpha" operator="out"/>
<feColorMatrix type="matrix" values="0 0 0 0 0.337255 0 0 0 0 1 0 0 0 0 0.921569 0 0 0 0.96 0"/>
<feBlend mode="normal" in2="BackgroundImageFix" result="effect1_dropShadow_5908_246"/>
<feBlend mode="normal" in="SourceGraphic" in2="effect1_dropShadow_5908_246" result="shape"/>
</filter>
<filter id="filter3_f_5908_246" x="15.3171" y="14.9941" width="249.391" height="356.526" filterUnits="userSpaceOnUse" color-interpolation-filters="sRGB">
<feFlood flood-opacity="0" result="BackgroundImageFix"/>
<feBlend mode="normal" in="SourceGraphic" in2="BackgroundImageFix" result="shape"/>
<feGaussianBlur stdDeviation="2" result="effect1_foregroundBlur_5908_246"/>
</filter>
<filter id="filter4_d_5908_246" x="0.825611" y="0.500507" width="278.374" height="385.514" filterUnits="userSpaceOnUse" color-interpolation-filters="sRGB">
<feFlood flood-opacity="0" result="BackgroundImageFix"/>
<feColorMatrix in="SourceAlpha" type="matrix" values="0 0 0 0 0 0 0 0 0 0 0 0 0 0 0 0 0 0 127 0" result="hardAlpha"/>
<feOffset/>
<feGaussianBlur stdDeviation="9.10277"/>
<feComposite in2="hardAlpha" operator="out"/>
<feColorMatrix type="matrix" values="0 0 0 0 0.337255 0 0 0 0 1 0 0 0 0 0.921569 0 0 0 0.96 0"/>
<feBlend mode="normal" in2="BackgroundImageFix" result="effect1_dropShadow_5908_246"/>
<feBlend mode="normal" in="SourceGraphic" in2="effect1_dropShadow_5908_246" result="shape"/>
</filter>
<filter id="filter5_f_5908_246" x="15.3171" y="14.9941" width="249.391" height="356.526" filterUnits="userSpaceOnUse" color-interpolation-filters="sRGB">
<feFlood flood-opacity="0" result="BackgroundImageFix"/>
<feBlend mode="normal" in="SourceGraphic" in2="BackgroundImageFix" result="shape"/>
<feGaussianBlur stdDeviation="2" result="effect1_foregroundBlur_5908_246"/>
</filter>
<filter id="filter6_d_5908_246" x="105.09" y="120.956" width="101.353" height="85.7207" filterUnits="userSpaceOnUse" color-interpolation-filters="sRGB">
<feFlood flood-opacity="0" result="BackgroundImageFix"/>
<feColorMatrix in="SourceAlpha" type="matrix" values="0 0 0 0 0 0 0 0 0 0 0 0 0 0 0 0 0 0 127 0" result="hardAlpha"/>
<feOffset dy="4"/>
<feGaussianBlur stdDeviation="9"/>
<feComposite in2="hardAlpha" operator="out"/>
<feColorMatrix type="matrix" values="0 0 0 0 0.337255 0 0 0 0 1 0 0 0 0 0.921569 0 0 0 0.7 0"/>
<feBlend mode="normal" in2="BackgroundImageFix" result="effect1_dropShadow_5908_246"/>
<feBlend mode="normal" in="SourceGraphic" in2="effect1_dropShadow_5908_246" result="shape"/>
</filter>
<filter id="filter7_d_5908_246" x="92.4487" y="274.448" width="119.58" height="48.3359" filterUnits="userSpaceOnUse" color-interpolation-filters="sRGB">
<feFlood flood-opacity="0" result="BackgroundImageFix"/>
<feColorMatrix in="SourceAlpha" type="matrix" values="0 0 0 0 0 0 0 0 0 0 0 0 0 0 0 0 0 0 127 0" result="hardAlpha"/>
<feOffset dy="4"/>
<feGaussianBlur stdDeviation="9"/>
<feComposite in2="hardAlpha" operator="out"/>
<feColorMatrix type="matrix" values="0 0 0 0 0.337255 0 0 0 0 1 0 0 0 0 0.921569 0 0 0 1 0"/>
<feBlend mode="normal" in2="BackgroundImageFix" result="effect1_dropShadow_5908_246"/>
<feBlend mode="normal" in="SourceGraphic" in2="effect1_dropShadow_5908_246" result="shape"/>
</filter>
<linearGradient id="paint0_linear_5908_246" x1="165.65" y1="60.0528" x2="165.65" y2="385.325" gradientUnits="userSpaceOnUse">
<stop stop-color="#1DF2D8"/>
<stop offset="1" stop-color="#1DF2D8" stop-opacity="0"/>
</linearGradient>
<linearGradient id="paint1_linear_5908_246" x1="165.08" y1="40.6328" x2="165.08" y2="404.744" gradientUnits="userSpaceOnUse">
<stop stop-color="#82FFF0"/>
<stop offset="1" stop-color="#1DF2D8" stop-opacity="0"/>
</linearGradient>
<linearGradient id="paint2_linear_5908_246" x1="165.65" y1="60.0528" x2="165.65" y2="385.325" gradientUnits="userSpaceOnUse">
<stop stop-color="#1DF2D8"/>
<stop offset="0.979167" stop-color="#1DF2D8" stop-opacity="0.25"/>
<stop offset="1" stop-color="#1DF2D8" stop-opacity="0"/>
</linearGradient>
<linearGradient id="paint3_linear_5908_246" x1="165.08" y1="40.6328" x2="165.08" y2="404.744" gradientUnits="userSpaceOnUse">
<stop stop-color="#82FFF0"/>
<stop offset="1" stop-color="#1DF2D8" stop-opacity="0"/>
</linearGradient>
</defs>
</svg>
