<svg width="634" height="539" viewBox="0 0 634 539" fill="none" xmlns="http://www.w3.org/2000/svg">
<path d="M0.200928 0.503906L633.201 0.503906M0.200928 22.9592L633.201 22.9592M0.200928 45.4145L633.201 45.4145M0.200928 67.8698L633.201 67.8698M0.200928 90.3251L633.201 90.3251M0.200928 112.78L633.201 112.78M0.200928 135.236L633.201 135.236M0.200928 157.691L633.201 157.691M0.200928 180.146L633.201 180.146" stroke="url(#paint0_linear_5704_227)" stroke-opacity="0.6"/>
<path d="M0.200928 180.146L633.201 180.146M0.200928 202.602L633.201 202.602M0.200928 225.057L633.201 225.057M0.200928 247.512L633.201 247.512M0.200928 269.968L633.201 269.968M0.200928 292.423L633.201 292.423M0.200928 314.878L633.201 314.878M0.200928 337.334L633.201 337.334M0.200928 359.789L633.201 359.789" stroke="url(#paint1_linear_5704_227)" stroke-opacity="0.6"/>
<path d="M0.200928 358.105L633.201 358.105M0.200928 380.56L633.201 380.56M0.200928 403.016L633.201 403.016M0.200928 425.471L633.201 425.471M0.200928 447.926L633.201 447.926M0.200928 470.381L633.201 470.381M0.200928 492.837L633.201 492.837M0.200928 515.292L633.201 515.292M0.200928 537.747L633.201 537.747" stroke="url(#paint2_linear_5704_227)" stroke-opacity="0.6"/>
<defs>
<linearGradient id="paint0_linear_5704_227" x1="0.200977" y1="90.3229" x2="633.026" y2="104.559" gradientUnits="userSpaceOnUse">
<stop stop-color="#A034D9" stop-opacity="0.34"/>
<stop offset="1" stop-color="white" stop-opacity="0"/>
</linearGradient>
<linearGradient id="paint1_linear_5704_227" x1="0.200977" y1="269.965" x2="633.026" y2="284.201" gradientUnits="userSpaceOnUse">
<stop stop-color="#A034D9" stop-opacity="0.34"/>
<stop offset="1" stop-color="white" stop-opacity="0"/>
</linearGradient>
<linearGradient id="paint2_linear_5704_227" x1="0.200977" y1="447.924" x2="633.026" y2="462.16" gradientUnits="userSpaceOnUse">
<stop stop-color="#A034D9" stop-opacity="0.34"/>
<stop offset="1" stop-color="white" stop-opacity="0"/>
</linearGradient>
</defs>
</svg>
