<svg width="308" height="412" viewBox="0 0 308 412" fill="none" xmlns="http://www.w3.org/2000/svg">
<g clip-path="url(#clip0_5723_231)">
<g filter="url(#filter0_b_5723_231)">
<path d="M122.645 8.83654L7.25203 106.405C4.55543 108.685 3 112.037 3 115.568V299.291C3 302.903 4.62721 306.323 7.43003 308.602L122.693 402.311C124.832 404.05 127.505 405 130.263 405H289C295.627 405 301 399.627 301 393V18C301 11.3726 295.627 6 289 6H130.393C127.556 6 124.811 7.00496 122.645 8.83654Z" fill="url(#paint0_linear_5723_231)" fill-opacity="0.77"/>
<path d="M122.645 8.83654L7.25203 106.405C4.55543 108.685 3 112.037 3 115.568V299.291C3 302.903 4.62721 306.323 7.43003 308.602L122.693 402.311C124.832 404.05 127.505 405 130.263 405H289C295.627 405 301 399.627 301 393V18C301 11.3726 295.627 6 289 6H130.393C127.556 6 124.811 7.00496 122.645 8.83654Z" fill="black" fill-opacity="0.2"/>
<path d="M122.645 8.83654L7.25203 106.405C4.55543 108.685 3 112.037 3 115.568V299.291C3 302.903 4.62721 306.323 7.43003 308.602L122.693 402.311C124.832 404.05 127.505 405 130.263 405H289C295.627 405 301 399.627 301 393V18C301 11.3726 295.627 6 289 6H130.393C127.556 6 124.811 7.00496 122.645 8.83654Z" stroke="url(#paint1_linear_5723_231)" stroke-width="2.5"/>
</g>
<g clip-path="url(#clip1_5723_231)">
<g clip-path="url(#clip2_5723_231)">
<path opacity="0.9" d="M75.6356 235.871C62.5992 187.756 92.4422 148.751 142.292 148.751C192.141 148.751 243.121 187.756 256.157 235.871C269.193 283.985 239.351 322.99 189.501 322.99C139.651 322.99 88.6721 283.985 75.6356 235.871Z" stroke="#38DBFF" stroke-width="0.907143"/>
<path d="M116.911 235.87C109.836 209.757 126.032 188.589 153.086 188.589C180.14 188.589 207.807 209.757 214.882 235.87C221.957 261.982 205.761 283.151 178.707 283.151C151.653 283.151 123.986 261.982 116.911 235.87Z" fill="url(#paint2_linear_5723_231)" stroke="#38DBFF" stroke-width="0.362857" stroke-dasharray="0.91 5.44"/>
<path opacity="0.2" d="M66.5645 235.87C52.2179 182.92 85.0602 139.995 139.92 139.995C194.779 139.995 250.882 182.92 265.229 235.87C279.575 288.821 246.733 331.746 191.874 331.746C137.014 331.746 80.9112 288.821 66.5645 235.87Z" stroke="#38DBFF" stroke-width="0.907143"/>
<path opacity="0.2" d="M118.725 235.87C111.912 210.724 127.508 190.34 153.561 190.34C179.613 190.34 206.255 210.724 213.068 235.87C219.881 261.015 204.285 281.4 178.233 281.4C152.181 281.4 125.538 261.015 118.725 235.87Z" stroke="#38DBFF" stroke-width="87.0857" stroke-dasharray="0.36 29.03"/>
<path opacity="0.1" d="M2.61076 235.87C-20.9728 148.828 33.0145 78.2666 123.195 78.2666C213.375 78.2666 305.599 148.828 329.182 235.87C352.766 322.912 298.778 393.473 208.598 393.473C118.418 393.473 26.1943 322.912 2.61076 235.87Z" stroke="#38DBFF" stroke-width="36.2857" stroke-dasharray="0.36 29.03"/>
<path opacity="0.3" d="M-15.0786 235.87C-41.217 139.399 18.619 61.1934 118.569 61.1934C218.518 61.1934 320.733 139.399 346.871 235.87C373.01 332.342 313.174 410.547 213.224 410.547C113.274 410.547 11.0598 332.342 -15.0786 235.87Z" stroke="#38DBFF" stroke-width="0.907143"/>
<path opacity="0.3" d="M-24.422 235.87C-51.9099 134.418 11.0152 52.1748 116.125 52.1748C221.235 52.1748 328.727 134.418 356.215 235.87C383.703 337.322 320.778 419.565 215.668 419.565C110.558 419.565 3.06587 337.322 -24.422 235.87Z" stroke="#38DBFF" stroke-width="0.362857"/>
<path d="M118.569 61.1934L139.919 139.995" stroke="url(#paint3_linear_5723_231)" stroke-width="0.907143" stroke-dasharray="0.91 5.44"/>
<path d="M118.569 61.1934L139.919 139.995" stroke="url(#paint4_linear_5723_231)" stroke-width="0.907143" stroke-dasharray="0.91 5.44"/>
<path d="M-15.532 235.87H66.1108" stroke="url(#paint5_linear_5723_231)" stroke-width="0.907143" stroke-dasharray="0.91 5.44"/>
<path d="M-15.532 235.87H66.1108" stroke="url(#paint6_linear_5723_231)" stroke-width="0.907143" stroke-dasharray="0.91 5.44"/>
<path d="M347.325 235.87H265.682" stroke="url(#paint7_linear_5723_231)" stroke-width="0.907143" stroke-dasharray="0.91 5.44"/>
<path d="M213.343 410.985L191.992 332.184" stroke="url(#paint8_linear_5723_231)" stroke-width="0.907143" stroke-dasharray="0.91 5.44"/>
<path d="M83.7137 130.914L118.687 61.6309L191.205 130.914C256.326 193.131 279.486 278.609 248.079 340.826L213.106 410.109L140.588 340.826C75.4664 278.609 52.3064 193.131 83.7137 130.914Z" stroke="#38DBFF" stroke-width="0.907143" stroke-dasharray="0.91 5.44"/>
<path d="M260.582 183.995L346.418 235.87L288.692 287.745C236.854 334.33 148.294 334.33 71.2119 287.745L-14.6247 235.87L43.1014 183.995C94.9392 137.41 183.5 137.41 260.582 183.995Z" stroke="#38DBFF" stroke-width="0.907143" stroke-dasharray="0.91 5.44"/>
<path opacity="0.2" d="M290.961 273.405L326.927 359.076L234.831 346.767C152.127 335.713 73.1297 275.272 40.8319 198.337L4.86708 112.665L96.9625 124.974C179.666 136.028 258.664 196.47 290.961 273.405Z" stroke="#38DBFF" stroke-width="0.907143" stroke-dasharray="0.91 5.44"/>
<path opacity="0.3" d="M174.737 124.973L260.163 112.664L270.622 198.336C280.015 275.271 233.77 335.712 157.056 346.767L71.631 359.075L61.1714 273.404C51.779 196.469 98.0235 136.027 174.737 124.973Z" stroke="#38DBFF" stroke-width="0.907143" stroke-dasharray="0.91 5.44"/>
<path opacity="0.1" d="M-15.5321 235.87L118.687 61.6309L347.325 235.87L213.106 410.109L-15.5321 235.87Z" stroke="#38DBFF" stroke-width="0.907143"/>
</g>
</g>
</g>
<path d="M301 323V87L308 95.5V314L301 323Z" fill="#56FFEB"/>
<path d="M0 406.5V339.5C0 336.179 3.90695 334.4 6.41191 336.58L82.4207 402.728C85.9084 405.763 83.7617 411.5 79.1383 411.5H5C2.23858 411.5 0 409.261 0 406.5Z" fill="url(#paint9_linear_5723_231)"/>
<g filter="url(#filter1_b_5723_231)">
<path d="M3.5 402.5V335.5C3.5 332.179 7.40695 330.4 9.91191 332.58L85.9207 398.728C89.4084 401.763 87.2617 407.5 82.6383 407.5H8.5C5.73858 407.5 3.5 405.261 3.5 402.5Z" fill="#182E33"/>
</g>
<path d="M163 0L166.253 19.7473L186 23L166.253 26.2527L163 46L159.747 26.2527L140 23L159.747 19.7473L163 0Z" fill="white"/>
<defs>
<filter id="filter0_b_5723_231" x="-306.25" y="-303.25" width="916.5" height="1017.5" filterUnits="userSpaceOnUse" color-interpolation-filters="sRGB">
<feFlood flood-opacity="0" result="BackgroundImageFix"/>
<feGaussianBlur in="BackgroundImageFix" stdDeviation="154"/>
<feComposite in2="SourceAlpha" operator="in" result="effect1_backgroundBlur_5723_231"/>
<feBlend mode="normal" in="SourceGraphic" in2="effect1_backgroundBlur_5723_231" result="shape"/>
</filter>
<filter id="filter1_b_5723_231" x="-323.5" y="4.62207" width="738.148" height="729.878" filterUnits="userSpaceOnUse" color-interpolation-filters="sRGB">
<feFlood flood-opacity="0" result="BackgroundImageFix"/>
<feGaussianBlur in="BackgroundImageFix" stdDeviation="163.5"/>
<feComposite in2="SourceAlpha" operator="in" result="effect1_backgroundBlur_5723_231"/>
<feBlend mode="normal" in="SourceGraphic" in2="effect1_backgroundBlur_5723_231" result="shape"/>
</filter>
<linearGradient id="paint0_linear_5723_231" x1="152" y1="6" x2="152" y2="405" gradientUnits="userSpaceOnUse">
<stop stop-opacity="0"/>
<stop offset="1" stop-color="#0E0E0E"/>
</linearGradient>
<linearGradient id="paint1_linear_5723_231" x1="3" y1="205.5" x2="301" y2="205.5" gradientUnits="userSpaceOnUse">
<stop stop-color="#21FCFF"/>
<stop offset="1" stop-color="#FD40FF"/>
</linearGradient>
<linearGradient id="paint2_linear_5723_231" x1="153.086" y1="188.589" x2="153.086" y2="283.151" gradientUnits="userSpaceOnUse">
<stop stop-color="#00E8FF"/>
<stop offset="1" stop-color="#38DBFF" stop-opacity="0.38"/>
</linearGradient>
<linearGradient id="paint3_linear_5723_231" x1="118.069" y1="61.1934" x2="118.069" y2="139.995" gradientUnits="userSpaceOnUse">
<stop stop-color="#38DBFF"/>
<stop offset="1" stop-color="#38DBFF"/>
</linearGradient>
<linearGradient id="paint4_linear_5723_231" x1="118.069" y1="61.1934" x2="118.069" y2="139.995" gradientUnits="userSpaceOnUse">
<stop stop-color="#38DBFF"/>
<stop offset="1" stop-color="#38DBFF"/>
</linearGradient>
<linearGradient id="paint5_linear_5723_231" x1="-nan" y1="-nan" x2="-nan" y2="-nan" gradientUnits="userSpaceOnUse">
<stop stop-color="white" stop-opacity="0.2"/>
<stop offset="1" stop-color="white"/>
</linearGradient>
<linearGradient id="paint6_linear_5723_231" x1="25.2894" y1="235.87" x2="25.2894" y2="236.835" gradientUnits="userSpaceOnUse">
<stop stop-color="#38DBFF"/>
<stop offset="1" stop-color="#38DBFF"/>
</linearGradient>
<linearGradient id="paint7_linear_5723_231" x1="306.504" y1="235.87" x2="306.504" y2="236.835" gradientUnits="userSpaceOnUse">
<stop stop-color="#38DBFF"/>
<stop offset="1" stop-color="#38DBFF"/>
</linearGradient>
<linearGradient id="paint8_linear_5723_231" x1="-nan" y1="-nan" x2="-nan" y2="-nan" gradientUnits="userSpaceOnUse">
<stop stop-color="white" stop-opacity="0.2"/>
<stop offset="1" stop-color="white"/>
</linearGradient>
<linearGradient id="paint9_linear_5723_231" x1="0" y1="371.25" x2="92.5" y2="371.25" gradientUnits="userSpaceOnUse">
<stop stop-color="#00DBDE"/>
<stop offset="1" stop-color="#FC00FF"/>
</linearGradient>
<clipPath id="clip0_5723_231">
<rect width="298" height="399" fill="white" transform="translate(3 6)"/>
</clipPath>
<clipPath id="clip1_5723_231">
<rect width="335.643" height="381" fill="white" transform="matrix(-1 0 0 1 333.643 52)"/>
</clipPath>
<clipPath id="clip2_5723_231">
<rect width="381" height="381" fill="white" transform="matrix(-1 0 0.261515 0.965199 306.577 52)"/>
</clipPath>
</defs>
</svg>
